<?xml version="1.0" standalone="no"?>
<!DOCTYPE svg PUBLIC "-//W3C//DTD SVG 1.1//EN" "http://www.w3.org/Graphics/SVG/1.1/DTD/svg11.dtd" >
<svg xmlns="http://www.w3.org/2000/svg" xmlns:xlink="http://www.w3.org/1999/xlink" version="1.1">
<metadata>
Created by FontForge 20170731 at Sat Oct 31 22:29:12 2015
 By Aleksey,,,
Copyright (c) 2011 Natanael Gama (exo@ndiscovered.com), with Reserved Font Name "Exo"
</metadata>
<defs>
<font id="Exo-ExtraLightItalic" horiz-adv-x="542" >
  <font-face 
    font-family="Exo"
    font-weight="200"
    font-style="italic"
    font-stretch="normal"
    units-per-em="1000"
    panose-1="2 0 3 3 0 0 0 0 0 0"
    ascent="800"
    descent="-200"
    x-height="531"
    cap-height="732"
    bbox="-13 -272.97 1049 900"
    underline-thickness="50"
    underline-position="-150"
    unicode-range="U+000D-007E"
  />
<missing-glyph horiz-adv-x="758" 
d="M100 0v531h558v-531h-558zM114 22l256 244l-256 241v-485zM124 518l257 -242l254 242h-511zM127 13h507l-253 243zM392 266l252 -241v481z" />
    <glyph glyph-name="fi" unicode="fi" horiz-adv-x="559" 
d="M60 487l4 28l101 13l9 56q15 93 70 147.5t144 54.5q86 0 180 -24l-4 -25l-169 9q-66 3 -116.5 -37t-63.5 -125l-9 -56l366 -8l-83 -520h-41l77 487h-326l-78 -487h-41l78 487h-98z" />
    <glyph glyph-name="fl" unicode="fl" horiz-adv-x="694" 
d="M92 490l4 28l102 13l7 47q15 98 65.5 152.5t136.5 54.5h248l-94 -594q-5 -28 -5.5 -51t1 -37.5t8 -25.5t10.5 -16.5t14 -9.5t14.5 -5t15.5 -3q68 -13 73 -13l-5 -28h-65q-132 0 -102 189l88 554h-201q-62 0 -104.5 -40t-56.5 -127l-7 -47h153l-7 -41h-153l-79 -490h-41
l78 490h-98z" />
    <glyph glyph-name=".notdef" horiz-adv-x="758" 
d="M100 0v531h558v-531h-558zM114 22l256 244l-256 241v-485zM124 518l257 -242l254 242h-511zM127 13h507l-253 243zM392 266l252 -241v481z" />
    <glyph glyph-name=".notdef" horiz-adv-x="758" 
d="M100 0v531h558v-531h-558zM114 22l256 244l-256 241v-485zM124 518l257 -242l254 242h-511zM127 13h507l-253 243zM392 266l252 -241v481z" />
    <glyph glyph-name=".null" horiz-adv-x="0" 
 />
    <glyph glyph-name="uni000D" unicode="&#xd;" horiz-adv-x="1000" 
 />
    <glyph glyph-name="space" unicode=" " horiz-adv-x="239" 
 />
    <glyph glyph-name="exclam" unicode="!" horiz-adv-x="245" 
d="M84 16l10 60q2 16 19 16h25q16 0 14 -16l-10 -60q-2 -16 -18 -16h-26q-7 0 -11 4.5t-3 11.5zM123 197l79 534h45l-90 -534h-34z" />
    <glyph glyph-name="quotedbl" unicode="&#x22;" horiz-adv-x="318" 
d="M132 531l13 134l11 67h42l-11 -67l-28 -134h-27zM244 531l13 134l11 67h42l-11 -67l-28 -134h-27z" />
    <glyph glyph-name="numbersign" unicode="#" horiz-adv-x="650" 
d="M56 244l8 25h172l60 192h-172l9 25h172l78 246h25l-78 -246h179l78 246h25l-77 -246h177l-9 -25h-177l-60 -193h177l-8 -25h-177l-78 -243h-25l77 243l-179 1l-77 -244h-26l77 244h-171zM262 269l178 -1l60 193h-178z" />
    <glyph glyph-name="dollar" unicode="$" horiz-adv-x="574" 
d="M80 10l5 28q95 -6 228 -6q157 0 176 124l10 68q11 62 -10 88t-91 26h-111q-43 0 -74 10t-46.5 26t-24.5 36t-8 41.5t3 42.5l11 66q8 53 27 88.5t49.5 54.5t67 27t86.5 8l13 86h32l-14 -88q74 -4 179 -19l-4 -28l-208 9q-81 4 -127.5 -25.5t-59.5 -112.5l-11 -66
q-10 -64 18 -89.5t96 -25.5h113q49 0 80 -12.5t43 -34t15.5 -49.5t-3.5 -59l-10 -68q-6 -42 -23 -73t-39.5 -48.5t-53 -27.5t-59 -13t-64.5 -2l-13 -81h-31l13 83q-136 9 -180 16z" />
    <glyph glyph-name="percent" unicode="%" horiz-adv-x="977" 
d="M115 474l21 133q10 67 41.5 96t106.5 29h101q70 0 94 -29.5t14 -95.5l-21 -133q-11 -68 -42 -96.5t-105 -28.5h-101q-67 0 -93 30.5t-16 94.5zM147 474q-9 -54 9.5 -73.5t71.5 -19.5h101q54 0 78 19t33 74l21 133q8 52 -8 72.5t-72 20.5h-101q-55 0 -79 -19.5t-33 -73.5z
M225 0l554 732h38l-554 -732h-38zM558 127l21 133q10 67 41 96t106 29h101q69 0 94 -29.5t15 -95.5l-21 -133q-11 -68 -42.5 -96.5t-105.5 -28.5h-101q-67 0 -92.5 30.5t-15.5 94.5zM590 127q-9 -54 9.5 -73.5t70.5 -19.5h101q54 0 78.5 19t33.5 74l21 133q8 52 -8.5 72.5
t-72.5 20.5h-101q-55 0 -79 -19t-32 -74z" />
    <glyph glyph-name="ampersand" unicode="&#x26;" horiz-adv-x="666" 
d="M92 81q-44 76 -21 151t100 134l97 73l-49 85q-34 58 -25.5 101t39 68.5t73.5 32.5q63 8 138 5.5t142 -12.5l-4 -25h-210q-59 0 -95.5 -17t-45.5 -51.5t22 -86.5l213 -371l166 141l12 -12l-78 -96l-78 -67l79 -134h-41l-67 111l-80 -67q-41 -35 -95.5 -45t-107 10.5
t-84.5 71.5zM125 103q35 -57 102 -67t125 37l86 71l-151 260l-88 -66q-72 -55 -91.5 -116t17.5 -119z" />
    <glyph glyph-name="quotesingle" unicode="'" horiz-adv-x="150" 
d="M110 531l13 134l11 67h42l-11 -67l-28 -134h-27z" />
    <glyph glyph-name="parenleft" unicode="(" horiz-adv-x="295" 
d="M126 372q13 80 42.5 163.5t62.5 146t64.5 113.5t51.5 78l20 27h47q-8 -11 -22 -29.5t-51 -77t-68 -118.5t-62.5 -145t-44.5 -164q-14 -93 -11.5 -174t17 -147.5t31 -114.5t29.5 -74l13 -26h-45l-6.5 13t-16.5 39t-22 62.5t-20.5 82.5t-16 101t-4 115.5t11.5 128.5z" />
    <glyph glyph-name="parenright" unicode=")" horiz-adv-x="296" 
d="M-13 -170q8 9 21.5 26.5t50.5 74.5t67.5 116t62.5 146.5t46 171.5q14 87 11 166t-17.5 146.5t-30.5 117t-29 77.5l-13 28h44q3 -6 7 -15.5t16 -41.5t21.5 -65.5t20 -84t16 -100t5 -111t-10.5 -120.5q-14 -87 -44 -174t-62.5 -149t-63 -111t-50.5 -74l-20 -24h-48z" />
    <glyph glyph-name="asterisk" unicode="*" horiz-adv-x="468" 
d="M139 583l3 23l144 12l-5 -40zM188 411l51 134l41 -8l-72 -133zM291 489l28 36l101 -86l-15 -18zM295 721l23 8l51 -121l-42 -18zM346 558l127 81l9 -20l-113 -92z" />
    <glyph glyph-name="plus" unicode="+" horiz-adv-x="521" 
d="M100 336l7 40h177l28 178h41l-28 -178h178l-7 -40h-178l-28 -178h-41l28 178h-177z" />
    <glyph glyph-name="comma" unicode="," horiz-adv-x="203" 
d="M66 -75l2 15q21 0 24 20l7 40h-8q-17 0 -14 17l9 59q3 18 20 18h24q15 0 13 -18l-17 -104q-4 -26 -19 -38t-28 -10z" />
    <glyph glyph-name="hyphen" unicode="-" horiz-adv-x="339" 
d="M60 270l7 40h294l-7 -40h-294z" />
    <glyph glyph-name="period" unicode="." horiz-adv-x="205" 
d="M77 16l9 60q3 16 19 16h25q17 0 14 -16l-10 -60q-2 -16 -18 -16h-25q-8 0 -11.5 4.5t-2.5 11.5z" />
    <glyph glyph-name="slash" unicode="/" horiz-adv-x="328" 
d="M8 -72l414 842h41l-414 -842h-41z" />
    <glyph glyph-name="zero" unicode="0" horiz-adv-x="646" 
d="M105 162l65 408q13 80 66 121t131 41h144q86 0 119.5 -45.5t22.5 -116.5l-65 -408q-26 -162 -193 -162h-144q-75 0 -117 39t-29 123zM146 162q-18 -121 112 -121h144q126 0 145 121l65 408q10 60 -16 90.5t-91 30.5h-144q-63 0 -102 -32.5t-48 -88.5z" />
    <glyph glyph-name="one" unicode="1" horiz-adv-x="390" 
d="M134 614l5 28q45 0 98 22.5t84 45.5l31 22h39l-114 -732h-41l109 680q-32 -23 -90 -44.5t-121 -21.5z" />
    <glyph glyph-name="two" unicode="2" horiz-adv-x="581" 
d="M47 0l6 38q42 28 66.5 45t82.5 59t97 73.5t92 77.5t86 84t59.5 80t32.5 76q14 88 -21 127.5t-117 39.5h-280l4 29q108 13 287 13q102 0 142.5 -58t26.5 -153q-5 -39 -31.5 -84.5t-62 -86.5t-85 -86.5t-90 -79t-90 -69.5t-72 -52t-47.5 -32h399l-6 -41h-479z" />
    <glyph glyph-name="three" unicode="3" horiz-adv-x="584" 
d="M39 10l5 25h281q59 0 103 30t55 99l10 59q18 115 -116 120l-222 7l4 29l225 7q59 2 103 32t52 85l11 69q10 64 -22.5 92.5t-91.5 28.5h-295l4 25q81 20 302 16q81 -1 118 -47t26 -118l-11 -69q-5 -34 -20.5 -61t-35 -41.5t-36.5 -22.5t-31 -10q14 -5 28 -14.5t28.5 -26
t21 -44t1.5 -60.5l-10 -59q-26 -168 -204 -168q-226 0 -283 17z" />
    <glyph glyph-name="four" unicode="4" horiz-adv-x="582" 
d="M55 233l390 499h50l-378 -486h343l36 226l32 75h22l-48 -301h90l-4 -29l-92 -13l-32 -202h-42l32 202h-384z" />
    <glyph glyph-name="five" unicode="5" horiz-adv-x="618" 
d="M79 10l4 28h300q53 0 95.5 36t51.5 94l16 98q21 129 -99 129h-152q-45 0 -85 -31.5t-47 -76.5h-39l92 445h423l-6 -41h-384l-64 -309q15 19 45.5 36.5t72.5 17.5q39 1 60.5 1t49.5 -0.5t37 -0.5q79 0 113.5 -45.5t23.5 -122.5l-17 -102q-8 -49 -28 -84t-48 -53t-56 -25.5
t-58 -7.5q-205 -1 -301 14z" />
    <glyph glyph-name="six" unicode="6" horiz-adv-x="630" 
d="M124 384q29 182 91.5 268t136.5 86q186 0 280 -12l-5 -29h-273q-40 0 -74 -31t-56 -80.5t-36 -96t-21 -91.5q119 14 273 15q48 0 80.5 -12.5t45.5 -33.5t18.5 -47.5t-1.5 -53.5l-18 -118q-13 -80 -57 -114.5t-119 -34.5h-131q-34 0 -59.5 10.5t-47 37t-32 69t-10 111
t14.5 157.5zM163 371q-53 -332 97 -332h129q117 0 135 110l17 112q11 64 -14.5 87t-88.5 23h-275z" />
    <glyph glyph-name="seven" unicode="7" 
d="M134 691l7 41h445l14 -32l-358 -700h-48l354 691h-414z" />
    <glyph glyph-name="eight" unicode="8" horiz-adv-x="639" 
d="M99 154l15 99q8 52 43.5 81.5t72.5 30.5q-28 7 -46 22.5t-24.5 34.5t-8.5 41t2 41l10 65q15 95 64 131.5t135 36.5h127q81 0 116.5 -44.5t22.5 -133.5l-11 -65q-6 -37 -34.5 -72.5t-71.5 -41.5q84 -26 67 -128l-15 -98q-25 -154 -183 -154h-125q-36 0 -63 6.5t-44 17
t-28 25t-16 28t-6.5 30t-1 26.5t2.5 21zM140 151q-10 -58 23 -84t98 -26h121q30 0 57 9.5t51 35.5t30 65l17 105q5 32 -2 53t-24.5 30t-33.5 12t-38 3h-142q-27 0 -54.5 -8.5t-54 -31.5t-31.5 -58zM193 494q-5 -32 2.5 -53t26 -31t37 -13t42.5 -3h140q60 0 94 31t40 69
l11 68q12 73 -14 103.5t-90 30.5h-125q-74 0 -108.5 -31.5t-45.5 -102.5z" />
    <glyph glyph-name="nine" unicode="9" horiz-adv-x="630" 
d="M86 8l4 29h274q33 0 62 21.5t49 53.5t36 74.5t25 78.5t15 71q-119 -14 -277 -15q-163 -1 -139 151l18 117q13 80 60.5 113t124.5 33h126q192 0 131 -391q-15 -94 -40.5 -163.5t-56.5 -108.5t-63.5 -57.5t-67.5 -18.5q-199 0 -281 12zM175 468q-10 -62 18.5 -83.5
t89.5 -21.5h272q53 332 -94 332h-129q-122 0 -139 -110z" />
    <glyph glyph-name="colon" unicode=":" horiz-adv-x="209" 
d="M80 16l10 60q2 16 18 16h26q16 0 13 -16l-9 -60q-3 -16 -19 -16h-25q-7 0 -11 4.5t-3 11.5zM146 453l10 61q2 17 18 17h26q16 0 14 -17l-10 -61q-3 -15 -19 -15h-25q-16 0 -14 15z" />
    <glyph glyph-name="semicolon" unicode=";" horiz-adv-x="206" 
d="M66 -75l2 15q21 0 24 20l7 40h-8q-7 0 -11 5t-3 12l9 59q3 18 20 18h24q15 0 13 -18l-17 -104q-4 -26 -19 -38t-28 -10zM147 454l9 61q3 16 19 16h25q17 0 14 -16l-9 -61q-3 -15 -19 -15h-25q-16 0 -14 15z" />
    <glyph glyph-name="less" unicode="&#x3c;" horiz-adv-x="472" 
d="M99 334l6 41l385 182l-8 -45l-332 -159l280 -171l-6 -41z" />
    <glyph glyph-name="equal" unicode="=" horiz-adv-x="463" 
d="M53 212l7 41h427l-7 -41h-427zM91 454l7 41h427l-7 -41h-427z" />
    <glyph glyph-name="greater" unicode="&#x3e;" horiz-adv-x="473" 
d="M72 141l7 45l337 170l-285 162l7 39l326 -182l-6 -41z" />
    <glyph glyph-name="question" unicode="?" horiz-adv-x="541" 
d="M125 699l4 27q133 15 261 13q203 1 173 -185l-15 -101q-16 -102 -84.5 -137t-199.5 -19l-8 -50.5t-8 -51.5h-43l21 136q78 -2 116 0q145 1 165 122l16 101q12 79 -20.5 112t-121.5 33h-256zM172 16l10 60q2 16 19 16h25q16 0 14 -16l-10 -60q-2 -16 -19 -16h-25
q-7 0 -11 4.5t-3 11.5z" />
    <glyph glyph-name="at" unicode="@" horiz-adv-x="889" 
d="M64 9l81 512q6 37 19.5 67t36.5 56t61 40.5t88 14.5h375q82 0 117.5 -46t22.5 -132l-53 -354q-3 -19 -6 -33t-14.5 -41t-28 -44.5t-48 -31.5t-72.5 -14h-38l-6 60q-24 -26 -79.5 -46t-109.5 -21q-35 -1 -61.5 6.5t-49.5 25.5t-34 50t-15 80.5t8 116.5q10 63 28.5 112
t40 77t48.5 46.5t50 25t48 8.5q63 4 127 -11.5t100 -50.5l-64 -439q17 0 30.5 2t32 9t31.5 19.5t24.5 36.5t16.5 57l53 354q7 35 2.5 59t-11.5 39.5t-22.5 24t-31.5 11.5t-38 3h-377q-40 0 -70.5 -12t-48 -32.5t-27.5 -43t-14 -49.5l-81 -512q-11 -67 19.5 -107t94.5 -40
h385l-4 -25q-79 -16 -291 -16h-98q-77 0 -118.5 53.5t-28.5 134.5zM297 254q-9 -54 -5.5 -92t11 -62t24 -38t35 -19.5t43.5 -5.5q114 -2 197 60l56 374q-76 34 -178 32q-153 -4 -183 -249z" />
    <glyph glyph-name="A" unicode="A" horiz-adv-x="648" 
d="M45 0l388 732h48l144 -732h-41l-47 236h-321l-125 -236h-46zM238 277h291l-78 404z" />
    <glyph glyph-name="B" unicode="B" horiz-adv-x="592" 
d="M80 0l116 732h263q188 0 162 -180q-10 -70 -52 -115.5t-92 -53.5q16 -4 33 -17t33 -35t24 -57t2 -76q-29 -198 -226 -198h-263zM128 42h222q152 0 178 163q11 65 -25 112t-102 46h-222zM186 404h222q65 0 111.5 39t59.5 108q15 79 -17 109.5t-109 30.5h-222z" />
    <glyph glyph-name="C" unicode="C" horiz-adv-x="568" 
d="M116 373q12 74 26.5 127.5t37.5 101t54.5 76.5t77 45.5t105.5 16.5q85 0 221 -26l-4 -29q-121 15 -222 14q-38 0 -67 -7t-59.5 -27.5t-53 -56.5t-42 -97t-33.5 -145q-53 -327 149 -331q65 -1 227 11l-4 -30q-104 -22 -228 -22q-54 0 -93.5 20.5t-61.5 55t-32 84t-9 103.5
t11 116z" />
    <glyph glyph-name="D" unicode="D" horiz-adv-x="661" 
d="M80 0l116 732h259q54 0 95 -17.5t63.5 -48.5t36.5 -68t16.5 -81t0 -82.5t-10.5 -76.5q-14 -78 -38 -140.5t-61 -112.5t-91 -77.5t-122 -27.5h-264zM128 42h220q47 0 88 19.5t70 51t52 74.5t36.5 86.5t21.5 90.5q54 327 -168 327h-218z" />
    <glyph glyph-name="E" unicode="E" horiz-adv-x="563" 
d="M98 126l76 479q11 69 50.5 99t95.5 28l302 -12l-4 -29h-304q-85 0 -99 -89l-35 -218l348 -7l-5 -29l-349 -7l-35 -218q-4 -28 1 -46t19 -26t27.5 -10.5t34.5 -2.5h294l-5 -29l-296 -12q-27 -1 -49 4.5t-40 19t-25.5 40.5t-1.5 65z" />
    <glyph glyph-name="F" unicode="F" horiz-adv-x="559" 
d="M80 0l94 599q12 76 50.5 105.5t96.5 27.5l302 -12l-4 -29h-305q-44 0 -67.5 -21.5t-30.5 -67.5l-34 -218l348 -7l-5 -29l-350 -7l-54 -341h-41z" />
    <glyph glyph-name="G" unicode="G" horiz-adv-x="629" 
d="M122 374q12 70 24 120t34 99.5t51 79.5t74 48.5t103 18.5q37 0 112 -9t128 -19l-5 -33q-150 19 -241 20q-99 0 -154.5 -75t-83.5 -257q-27 -172 2 -252t134 -80q34 0 91 13t97 26l39 13l42 260h-198l4 26q61 16 174 16q32 0 68 -3l-61 -386h-29l-3 55q-30 -19 -101 -40
t-129 -21q-48 0 -83.5 14t-56.5 41.5t-32.5 61t-13 78.5t2 88.5t11.5 96.5z" />
    <glyph glyph-name="H" unicode="H" horiz-adv-x="648" 
d="M85 0l116 732h41l-57 -358h409l57 358h41l-116 -732h-41l53 334h-409l-53 -334h-41z" />
    <glyph glyph-name="I" unicode="I" horiz-adv-x="203" 
d="M90 0l116 732h41l-116 -732h-41z" />
    <glyph glyph-name="J" unicode="J" horiz-adv-x="332" 
d="M38 21l8 28q29 -9 52 -13t52 -1.5t50 14.5t39 41.5t25 74.5l90 567h41l-90 -567q-16 -110 -75 -147q-38 -24 -97.5 -23.5t-94.5 26.5z" />
    <glyph glyph-name="K" unicode="K" 
d="M80 0l116 732h41l-55 -344h131l287 344h52l-303 -366l187 -366h-49l-176 346h-134l-55 -346h-42z" />
    <glyph glyph-name="L" unicode="L" 
d="M99 126l97 606h40l-96 -606q-5 -28 0.5 -46t19.5 -26t27.5 -10.5t34.5 -2.5h286l-6 -41h-284q-28 0 -49.5 5t-41 17.5t-27 39t-1.5 64.5z" />
    <glyph glyph-name="M" unicode="M" horiz-adv-x="790" 
d="M71 0l186 732h55l104 -663l308 663h60l-42 -732h-41l38 666l-310 -666h-45l-101 663l-170 -663h-42z" />
    <glyph glyph-name="N" unicode="N" horiz-adv-x="648" 
d="M80 0l116 732h41l313 -657l104 657h41l-116 -732h-39l-314 657l-105 -657h-41z" />
    <glyph glyph-name="O" unicode="O" horiz-adv-x="678" 
d="M117 366q10 63 22.5 114t28 88.5t32 65.5t38.5 46t43 29.5t50 17.5t54.5 8t61.5 2q41 0 70 -3.5t58 -13t47 -26.5t32.5 -45.5t19.5 -68.5t2.5 -96t-13.5 -128q-11 -68 -25 -121t-30.5 -91t-39 -65t-45.5 -43t-55 -25t-62 -12t-72 -3q-41 0 -70 3t-58 12t-47 25.5t-33 44
t-20 66.5t-2.5 93.5t13.5 125.5zM158 361q-11 -71 -14 -122.5t4 -88t20 -58.5t39 -34.5t56 -16.5t76 -4q52 0 87.5 7t68.5 26.5t55 55.5t40.5 93.5t31.5 141.5q8 52 11.5 94.5t3.5 75t-6.5 57.5t-14 42.5t-22 29.5t-28 19t-35.5 11t-41 5t-47 1t-45.5 -1t-41.5 -4t-39 -9.5
t-34 -18.5t-32 -29t-28 -42t-25.5 -58t-21 -76.5t-18.5 -96.5z" />
    <glyph glyph-name="P" unicode="P" horiz-adv-x="587" 
d="M75 0l116 732h286q174 0 144 -204q-7 -44 -18.5 -78.5t-24 -56.5t-31 -37.5t-32.5 -23.5t-36 -12t-34.5 -5t-33.5 -1q-32 0 -135.5 5.5t-107.5 7.5l-52 -327h-41zM172 356h245q30 0 52.5 6t45.5 23.5t39.5 53.5t24.5 90q6 31 4 54.5t-5 41t-12.5 29t-18.5 19t-23.5 11
t-26 5t-27.5 1.5h-245z" />
    <glyph glyph-name="Q" unicode="Q" horiz-adv-x="683" 
d="M121 366q10 63 22.5 114t28 88.5t32 65.5t38.5 46t43 29.5t50 17.5t54.5 8t61.5 2q41 0 70 -3.5t58 -13t47 -26.5t32.5 -45.5t19.5 -68.5t2.5 -96t-13.5 -128q-11 -68 -25 -121t-30.5 -91t-39 -65t-45.5 -43t-55 -25t-62 -12t-72 -3q-41 0 -70 3t-58 12t-47 25.5t-33 44
t-20 66.5t-2.5 93.5t13.5 125.5zM162 361q-11 -71 -14 -122.5t4 -88t20 -58.5t39 -34.5t56 -16.5t76 -4q52 0 87.5 7t68.5 26.5t55 55.5t40.5 93.5t31.5 141.5q8 52 11.5 94.5t3.5 75t-6.5 57.5t-14 42.5t-22 29.5t-28 19t-35.5 11t-41 5t-47 1t-45.5 -1t-41.5 -4t-39 -9.5
t-34 -18.5t-32 -29t-28 -42t-25.5 -58t-21 -76.5t-18.5 -96.5zM316 -33h27q10 -25 29 -39.5t42 -18.5t46 -1.5t48 11.5l-7 -43q-29 -11 -60.5 -11t-59 10t-46 34t-19.5 58z" />
    <glyph glyph-name="R" unicode="R" horiz-adv-x="611" 
d="M75 0l116 732h288q170 0 141 -209q-8 -55 -24 -94.5t-33.5 -60t-42 -33t-41.5 -15.5t-39 -4l108 -316h-45l-106 313q-30 1 -129 5.5t-100 5.5l-52 -324h-41zM173 356h245q29 0 52.5 6.5t46 23.5t38.5 52.5t23 86.5q3 37 3.5 63.5t-7.5 44.5t-16 29.5t-23.5 17.5t-29.5 8
t-32 2h-247z" />
    <glyph glyph-name="S" unicode="S" horiz-adv-x="567" 
d="M79 10l4 30q68 -7 241 -7q31 0 56 4.5t51 17t43.5 38t23.5 63.5l10 68q9 59 -13 86.5t-88 27.5h-121q-45 0 -76.5 9.5t-47 24.5t-24 35.5t-6.5 43t4 46.5l11 66q8 54 28 90t51 54t64.5 25t78.5 6q39 0 114 -7t114 -14l-4 -28l-230 8q-77 3 -120 -27t-55 -110l-11 -66
q-1 -20 -3 -35t2.5 -27t8.5 -20.5t13.5 -14t18 -9t21.5 -5.5t25 -3t28 -1h123q160 0 135 -158l-10 -68q-7 -42 -24 -72.5t-37.5 -47.5t-50 -26.5t-54.5 -12t-57 -2.5q-44 0 -125 6t-112 12z" />
    <glyph glyph-name="T" unicode="T" horiz-adv-x="613" 
d="M139 691l7 41h528l-7 -41h-247l-109 -691h-41l109 691h-240z" />
    <glyph glyph-name="U" unicode="U" horiz-adv-x="672" 
d="M130 314l66 418h41l-66 -418q-9 -55 -10 -97.5t2.5 -72t16 -50t26 -32t37.5 -17.5t44.5 -7.5t53.5 -1.5q42 0 72 5t61.5 21.5t53.5 46t40.5 81t30.5 124.5l66 418h41l-66 -418q-15 -97 -40.5 -160t-64.5 -97.5t-84.5 -48t-110.5 -13.5q-35 0 -60 2.5t-53 10t-46 21
t-33.5 37t-22 57t-6 81.5t10.5 110z" />
    <glyph glyph-name="V" unicode="V" horiz-adv-x="668" 
d="M150 732h43l133 -674l357 674h47l-388 -732h-48z" />
    <glyph glyph-name="W" unicode="W" horiz-adv-x="987" 
d="M150 732h41l134 -674l346 674h46l-144 -284l85 -393l346 677h45l-375 -732h-48l-84 389l-200 -389h-48z" />
    <glyph glyph-name="X" unicode="X" horiz-adv-x="562" 
d="M38 0l275 365l-162 367h45l146 -330l253 330h50l-284 -372l161 -360h-45l-144 322l-244 -322h-51z" />
    <glyph glyph-name="Y" unicode="Y" horiz-adv-x="628" 
d="M150 732h44l147 -420l300 420h49l-334 -472l-41 -260h-41l41 260z" />
    <glyph glyph-name="Z" unicode="Z" horiz-adv-x="526" 
d="M35 0l7 41l521 650h-419l7 41h473l-7 -41l-521 -650h419l-7 -41h-473z" />
    <glyph glyph-name="bracketleft" unicode="[" horiz-adv-x="284" 
d="M77 2l113 714q4 25 9.5 45.5t17.5 44t29 39t44.5 26.5t62.5 11h59l-6 -41h-60q-95 0 -115 -125l-113 -714q-11 -65 6 -98t68 -33h61l-7 -41h-60q-34 0 -57.5 12.5t-35 30.5t-16.5 42.5t-4.5 45t4.5 41.5z" />
    <glyph glyph-name="backslash" unicode="\" horiz-adv-x="418" 
d="M141 770h37l148 -842h-37z" />
    <glyph glyph-name="bracketright" unicode="]" horiz-adv-x="287" 
d="M-13 -170l7 41h60q94 0 115 124l113 715q11 70 -8 100.5t-67 30.5h-60l7 41h60q35 0 58.5 -13t34.5 -31t16 -43t4 -44.5t-4 -40.5l-113 -715q-5 -26 -10.5 -46.5t-17.5 -44t-28.5 -39t-44 -25.5t-62.5 -10h-60z" />
    <glyph glyph-name="asciicircum" unicode="^" horiz-adv-x="415" 
d="M134 531l148 130h38l93 -130h-35l-80 103l-124 -103h-40z" />
    <glyph glyph-name="underscore" unicode="_" horiz-adv-x="656" 
d="M19 -1l7 41h614l-7 -41h-614z" />
    <glyph glyph-name="grave" unicode="`" horiz-adv-x="230" 
d="M125 664h47l102 -133h-33z" />
    <glyph glyph-name="a" unicode="a" horiz-adv-x="543" 
d="M90 279q11 64 30 112t39.5 74.5t48.5 43.5t49.5 22.5t51.5 9.5q56 7 128 -10t108 -52l-70 -479h-27l-3 60q-33 -21 -91 -44t-109 -23q-30 0 -54 5t-46 16.5t-36 33t-22 52t-7.5 76t10.5 103.5zM127 248q-17 -109 10.5 -162t102.5 -53q39 0 79 9.5t58.5 17t69.5 29.5
l55 379q-103 45 -191 32q-53 -7 -86 -29t-58 -75.5t-40 -147.5z" />
    <glyph glyph-name="b" unicode="b" horiz-adv-x="548" 
d="M60 0l124 785h39l-45 -286q48 18 107 29t96 11q44 0 75 -17t46.5 -44t21.5 -65t4.5 -75t-8.5 -80q-44 -268 -223 -264q-47 1 -108 23.5t-80 41.5l-22 -59h-27zM114 87q102 -52 188 -52q64 0 111.5 57t65.5 171q19 127 -8.5 181t-95.5 54q-86 0 -200 -29z" />
    <glyph glyph-name="c" unicode="c" horiz-adv-x="492" 
d="M90 271q11 69 28.5 118.5t36 78t45 44.5t50.5 20.5t58 4.5q81 0 204 -27l-5 -28q-117 14 -206 14q-27 0 -45.5 -4.5t-39 -18.5t-35 -39t-28 -68t-23.5 -104q-9 -55 -9 -95.5t7 -65t22.5 -40t34 -21t43.5 -5.5q41 0 95.5 4.5t88.5 9.5l34 4l-4 -30q-63 -16 -108 -22
t-109 -6q-32 0 -56 7.5t-45.5 25.5t-31 49.5t-12.5 79t10 114.5z" />
    <glyph glyph-name="d" unicode="d" horiz-adv-x="531" 
d="M89 268q7 45 17.5 81.5t28 73t41 61t59 40t79.5 15.5q37 0 92.5 -11t98.5 -29l45 286h39l-124 -785h-27l-4 59q-26 -20 -91 -42.5t-111 -22.5q-42 0 -72 17t-46 44t-24 64t-7.5 73.5t6.5 75.5zM130 263q-19 -115 12 -171.5t95 -56.5q53 0 99.5 13.5t101.5 38.5l61 382
q-56 16 -96 22.5t-94 6.5q-31 0 -56 -10t-49.5 -34.5t-43.5 -72.5t-30 -118z" />
    <glyph glyph-name="e" unicode="e" horiz-adv-x="532" 
d="M88 278q6 38 12 64t16.5 56t22.5 49.5t31 39t43 30t57 17.5t74 7q101 0 150 -35t39 -118q-7 -52 -37.5 -88t-73.5 -51.5t-90.5 -22t-92.5 -3.5t-75 8t-41 9q-16 -110 4 -158t89 -49q88 -3 242 19l-5 -30q-106 -29 -239 -29q-94 0 -123 68.5t-3 216.5zM127 268q7 -1 19 -3
t48 -4t69 -1.5t74 7.5t71.5 20t54 39t28.5 62q9 63 -27 87.5t-116 24.5q-29 0 -53 -4t-42.5 -9t-34 -16.5t-26 -20t-19.5 -26t-14.5 -29t-11.5 -34t-8.5 -35.5t-7.5 -38q-3 -14 -4 -20z" />
    <glyph glyph-name="f" unicode="f" horiz-adv-x="373" 
d="M92 490l4 28l94 13l12 78q4 24 6.5 37.5t8.5 35t12 33.5t16.5 27t23.5 23t32 14t43 7q25 0 69 -5t64 -11l-3 -25h-132q-48 0 -67.5 -31t-31.5 -105l-12 -78h174l-7 -41h-174l-78 -490h-41l78 490h-91z" />
    <glyph glyph-name="g" unicode="g" horiz-adv-x="539" 
d="M37 -248l4 26l237 -10q44 -2 86 31t52 97l21 133q-47 -18 -105.5 -28.5t-96.5 -10.5q-56 0 -91.5 22.5t-48 61t-14 90.5t9.5 111q20 127 77 194.5t147 67.5q48 0 92.5 -3t96.5 -8l52 -5l-99 -625q-14 -88 -68 -131.5t-118 -36.5zM132 270q-10 -71 -8 -124t29.5 -84
t83.5 -31q51 0 91 6.5t114 25.5l69 430l-193 3q-40 1 -73.5 -18t-55.5 -52t-36 -72t-21 -84z" />
    <glyph glyph-name="h" unicode="h" horiz-adv-x="541" 
d="M60 0l124 784h41l-50 -315q126 71 223 71q76 0 111 -50t24 -120l-59 -370h-41l59 370q9 59 -18.5 94t-84.5 35q-59 0 -105 -13.5t-113 -46.5l-70 -439h-41z" />
    <glyph glyph-name="i" unicode="i" horiz-adv-x="161" 
d="M60 0l84 531h41l-84 -531h-41zM153 633l7 46q2 17 19 17h25q14 0 12 -17l-7 -46q-2 -16 -18 -16h-24q-16 0 -14 16z" />
    <glyph glyph-name="j" unicode="j" horiz-adv-x="173" 
d="M28 -270l127 801h41l-85 -535q-25 -168 -58 -266h-25zM163 633l8 46q2 17 18 17h25q15 0 13 -17l-8 -46q-2 -16 -18 -16h-24q-7 0 -11 4.5t-3 11.5z" />
    <glyph glyph-name="k" unicode="k" horiz-adv-x="479" 
d="M60 0l124 782h41l-76 -479q62 3 117 25.5t93 56.5t63.5 71.5t35.5 74.5h45q-13 -48 -39.5 -90t-59.5 -71t-65.5 -48.5t-64.5 -30.5l181 -291h-49l-173 279q-48 -11 -88 -7l-44 -272h-41z" />
    <glyph glyph-name="l" unicode="l" horiz-adv-x="305" 
d="M89 189l94 594h41l-94 -594q-5 -28 -5.5 -51t1 -37.5t8 -25.5t10.5 -16.5t14 -9.5t14.5 -5t15.5 -3q68 -13 73 -13l-5 -28h-66q-66 0 -91 46t-10 143z" />
    <glyph glyph-name="m" unicode="m" horiz-adv-x="913" 
d="M60 0l84 531h27l4 -63q59 34 111 52.5t107 18.5q48 0 82 -23t47 -60q49 33 116.5 58t127.5 25q73 0 111 -49.5t26 -120.5l-58 -369h-41l58 369q9 55 -19 92t-83 37q-105 0 -230 -65q7 -23 1 -65l-59 -368h-41l59 369q9 55 -19.5 92t-83.5 37q-60 0 -104.5 -13.5
t-112.5 -45.5l-69 -439h-41z" />
    <glyph glyph-name="n" unicode="n" horiz-adv-x="541" 
d="M60 0l84 531h27l4 -62q126 71 221 71q76 0 112 -50t25 -120l-59 -370h-41l59 370q9 57 -18.5 93t-84.5 36q-59 0 -105 -13.5t-113 -46.5l-70 -439h-41z" />
    <glyph glyph-name="o" unicode="o" horiz-adv-x="561" 
d="M90 263q13 82 33 134t52.5 83.5t75.5 43.5t106 12q125 0 165 -68.5t17 -214.5q-24 -147 -80 -202.5t-183 -55.5q-128 0 -168.5 61t-17.5 207zM131 258q-8 -49 -8.5 -85t7 -60.5t19.5 -39.5t33 -23t43 -11t55 -3q49 0 81 8t60.5 30.5t46.5 67.5t30 116q8 50 8.5 87.5
t-6.5 63.5t-18.5 43t-32 26.5t-43.5 13t-55 3.5t-54.5 -2.5t-46.5 -11t-40 -24.5t-31.5 -42t-27 -65t-20.5 -92z" />
    <glyph glyph-name="p" unicode="p" horiz-adv-x="537" 
d="M17 -270l129 795q79 11 236 11q50 0 84 -22t48.5 -60t18 -88.5t-6.5 -107.5q-9 -60 -24.5 -105.5t-41 -83.5t-65.5 -58t-93 -20q-39 0 -97 10t-100 28l-47 -299h-41zM111 60q62 -17 103 -24t91 -4q75 3 117.5 57.5t62.5 176.5q17 110 -9 169.5t-99 59.5h-196z" />
    <glyph glyph-name="q" unicode="q" horiz-adv-x="552" 
d="M92 274q42 263 227 263q132 0 235 -14l-125 -793h-41l47 299q-48 -18 -105.5 -28.5t-94.5 -10.5q-56 0 -91 22t-47.5 60.5t-14.5 90.5t10 111zM133 268q-11 -73 -9 -125.5t30 -82t85 -29.5q53 0 92.5 6t108.5 23l69 436h-196q-41 0 -73.5 -19.5t-53 -53t-33.5 -72
t-20 -83.5z" />
    <glyph glyph-name="r" unicode="r" horiz-adv-x="404" 
d="M60 0l84 531h26l4 -67q49 25 71.5 36t67 24t84.5 13q54 0 73 -8l-7 -40q-29 7 -73 7q-18 0 -33.5 -1.5t-34 -6t-28 -6.5t-31.5 -11t-27.5 -11t-34 -15t-32.5 -15l-68 -430h-41z" />
    <glyph glyph-name="s" unicode="s" horiz-adv-x="505" 
d="M64 6l4 28h255q14 0 21.5 0.5t23 4.5t24.5 12t18.5 24t13.5 40l9 50q5 36 -13 57t-62 21h-137q-76 0 -105 25t-18 97l8 48q10 64 46.5 94.5t111.5 30.5q39 0 120.5 -4t119.5 -8l-5 -28h-241q-55 0 -80 -22.5t-31 -66.5l-8 -48q-2 -14 -2.5 -25t2 -19t5 -13.5t9.5 -9.5
t12 -6t16 -2.5t17.5 -1t19.5 -0.5h6h136q60 0 91 -33.5t23 -89.5l-9 -53q-5 -32 -16.5 -54t-25.5 -33.5t-34.5 -18t-36 -8t-37.5 -1.5q-36 0 -129 5t-122 8z" />
    <glyph glyph-name="t" unicode="t" horiz-adv-x="355" 
d="M92 491l5 30l91 11l34 148h30l-23 -148h168l-7 -41h-168l-48 -303q-4 -28 -4.5 -50.5t1 -37.5t7.5 -26t10.5 -16.5t14.5 -9.5t14 -5t15 -3q68 -13 73 -13l-4 -28h-65q-67 0 -92.5 46t-10.5 143l48 303h-89z" />
    <glyph glyph-name="u" unicode="u" horiz-adv-x="540" 
d="M75 162l59 370h41l-59 -370q-9 -59 18.5 -94t84.5 -35q60 0 105.5 13.5t113.5 45.5l69 440h41l-84 -531h-27l-4 62q-126 -71 -220 -71q-76 0 -112.5 49t-25.5 121z" />
    <glyph glyph-name="v" unicode="v" horiz-adv-x="526" 
d="M94 531h42l120 -478l223 396q29 54 33 83h30q10 -33 -21 -92l-246 -440h-50z" />
    <glyph glyph-name="w" unicode="w" horiz-adv-x="803" 
d="M94 531h41l118 -477l221 392q31 57 35 83h28q10 -31 -21 -92l-52 -94l70 -289l225 394q31 57 35 84h28q11 -35 -21 -92l-252 -440h-43l-71 293l-165 -293h-45z" />
    <glyph glyph-name="x" unicode="x" horiz-adv-x="471" 
d="M24 0l234 267l-150 264h50l131 -230l202 230h53l-234 -267l149 -264h-50l-129 228l-201 -228h-55z" />
    <glyph glyph-name="y" unicode="y" horiz-adv-x="540" 
d="M94 531h42l76 -415q13 -67 69 -73h17l201 411q21 44 27 82h30q11 -37 -16 -93l-216 -442q-1 -3 -6 -12q-126 -251 -221 -258v27q16 4 33 17.5t33.5 34.5t31.5 42.5t30 48t24 43.5t18.5 36.5l9.5 19.5q-12 0 -24.5 4t-30 14t-32 34t-20.5 58z" />
    <glyph glyph-name="z" unicode="z" horiz-adv-x="451" 
d="M45 1l6 41l396 448h-339l6 41h396l-6 -41l-395 -448h323l-6 -41h-381z" />
    <glyph glyph-name="braceleft" unicode="{" horiz-adv-x="280" 
d="M67 356l6 41q18 1 30 3t29 8t28 19t14 33l38 240q13 85 59.5 133.5t139.5 48.5l-7 -41q-64 1 -102 -32.5t-50 -112.5l-37 -236q-6 -35 -33 -57.5t-63 -28.5q34 -5 53.5 -28.5t14.5 -54.5l-44 -275q-13 -82 14 -114.5t94 -31.5l-7 -40q-172 0 -141 190l42 267
q6 32 -19.5 52t-58.5 17z" />
    <glyph glyph-name="bar" unicode="|" horiz-adv-x="225" 
d="M74 -72l133 842h41l-133 -842h-41z" />
    <glyph glyph-name="braceright" unicode="}" horiz-adv-x="277" 
d="M-13 -170l7 40q65 0 102 30.5t49 105.5l43 271q5 33 32 55.5t62 28.5q-34 5 -53.5 28.5t-14.5 56.5l39 240q13 86 -14 122t-92 35l7 39q49 0 81.5 -17.5t45 -46t16.5 -64t-4 -72.5l-37 -234q-6 -35 19.5 -52t59.5 -18l-7 -41q-34 2 -64 -13.5t-36 -48.5l-43 -272
q-6 -38 -17.5 -66.5t-33 -54t-59 -39t-88.5 -13.5z" />
    <glyph glyph-name="asciitilde" unicode="~" horiz-adv-x="471" 
d="M140 572q4 3 15 11.5t15 11.5t14 10t15 9.5t14 7.5t15.5 6.5t14.5 3t16 1.5q22 0 58 -30t53 -30q9 0 19.5 3t18.5 6t19 9t16.5 10t17 11.5t14.5 9.5l8 -19q-2 -2 -13 -11t-14.5 -12t-13.5 -10.5t-15 -10.5t-14.5 -8.5t-16 -7.5t-15 -3.5t-17.5 -1.5q-22 0 -58 30t-53 30
q-14 0 -28.5 -4.5t-23 -9t-27 -16t-26.5 -15.5z" />
    </font>
</defs>
</svg>
